HIERARCHY
ROOT Hips
{
	OFFSET 0.000000 0.000000 0.000000 
	CHANNELS 6 Xposition Yposition Zposition Yrotation Zrotation Xrotation 
	JOINT Lumbar
	{
		OFFSET 0.000000 0.000000 0.000000 
		CHANNELS 3 Zrotation Xrotation Yrotation
		JOINT Neck
		{
			OFFSET 0.000000 0.445665 0.000000 
			CHANNELS 3 Zrotation Xrotation Yrotation
			End Site
			{
				OFFSET 0.000000 0.227535 0.000000 
			}
		}
		JOINT RightShoulder
		{
			OFFSET 0.019635 0.377685 0.194865 
			CHANNELS 3 Zrotation Xrotation Yrotation
			JOINT RightElbow
			{
				OFFSET 0.000000 -0.243375 0.000000 
				CHANNELS 2 Zrotation Yrotation
				JOINT RightWrist
				{
					OFFSET 0.000000 -0.264825 0.000000 
					CHANNELS 2 Zrotation Xrotation
					End Site
					{
						OFFSET 0.006600 -0.176220 0.000990 
					}
				}
			}
		}
		JOINT LeftShoulder
		{
			OFFSET 0.019635 0.377685 -0.194865 
			CHANNELS 3 Zrotation Xrotation Yrotation
			JOINT LeftElbow
			{
				OFFSET 0.000000 -0.243375 0.000000 
				CHANNELS 2 Zrotation Yrotation
				JOINT LeftWrist
				{
					OFFSET 0.000000 -0.264825 0.000000 
					CHANNELS 2 Zrotation Xrotation
					End Site
					{
						OFFSET 0.006600 -0.176220 -0.000990 
					}
				}
			}
		}
	}
	JOINT RightHip
	{
		OFFSET 0.052140 -0.069960 0.075570 
		CHANNELS 3 Zrotation Xrotation Yrotation
		JOINT RightKnee
		{
			OFFSET 0.000000 -0.402270 0.000000 
			CHANNELS 1 Zrotation
			JOINT RightAnkle
			{
				OFFSET 0.000000 -0.404085 0.000000 
				CHANNELS 3 Zrotation Xrotation Yrotation
				End Site
				{
					OFFSET 0.204105 -0.089430 0.008415 
				}
			}
		}
	}
	JOINT LeftHip
	{
		OFFSET 0.052140 -0.069960 -0.075570 
		CHANNELS 3 Zrotation Xrotation Yrotation
		JOINT LeftKnee
		{
			OFFSET 0.000000 -0.402270 0.000000 
			CHANNELS 1 Zrotation
			JOINT LeftAnkle
			{
				OFFSET 0.000000 -0.404085 0.000000 
				CHANNELS 3 Zrotation Xrotation Yrotation
				End Site
				{
					OFFSET 0.204105 -0.089430 -0.008415 
				}
			}
		}
	}
}
MOTION
Frames: 28
Frame Time: 0.02
0.00015 -6e-05 -0.00014 -180.33984 -34.41936 -2.54681 44.65119 2.64613 -4.73585 -8.41466 -0.98457 -0.86717 -28.69937 -8.48114 -8.10514 43.77215 111.09348 10.34177 5.25491 -32.39566 11.92464 4.87634 48.18255 -95.50236 14.45976 -0.22894 36.78395 -2.04747 -11.23994 -21.24819 -9.24351 -4.09121 -4.35656 40.19456 10.27396 3.32884 -27.17671 -9.79981 4.07884 4.38086
-0.00023 -0.00013 0.00015 -180.40712 -34.4187 -2.55405 44.68422 2.65052 -4.75298 -8.40874 -0.98299 -0.86754 -28.70652 -8.46739 -8.07946 43.75185 111.09762 10.33852 5.26148 -32.39104 11.91185 4.88801 48.17187 -95.54391 14.45642 -0.22971 36.7555 -2.1194 -11.53477 -21.25149 -9.20371 -4.06467 -4.34185 40.14481 10.38305 3.84391 -27.19479 -9.73853 4.04513 4.36109
-0.0006 -0.00019 0.00044 -180.47416 -34.41774 -2.56125 44.71684 2.65488 -4.77013 -8.40281 -0.98142 -0.86797 -28.71372 -8.454 -8.05302 43.7316 111.09607 10.33414 5.26673 -32.38641 11.8991 4.89961 48.16125 -95.58536 14.4531 -0.23048 36.72675 -2.19109 -11.82858 -21.2547 -9.16405 -4.03822 -4.32719 40.09485 10.49172 4.35717 -27.21275 -9.67746 4.01154 4.3414
-0.00097 -0.00025 0.00073 -180.54122 -34.41703 -2.56847 44.7497 2.65924 -4.78723 -8.3969 -0.97985 -0.86836 -28.72086 -8.44035 -8.02726 43.71136 111.0991 10.33068 5.27303 -32.3818 11.88636 4.91124 48.15061 -95.62679 14.44977 -0.23124 36.69832 -2.26279 -12.12248 -21.25798 -9.12438 -4.01177 -4.31252 40.04518 10.60046 4.87061 -27.23077 -9.61637 3.97793 4.3217
-0.00135 -0.00031 0.00102 -180.60852 -34.41676 -2.57571 44.78312 2.66365 -4.80427 -8.39102 -0.97826 -0.86867 -28.72792 -8.42618 -8.00264 43.69105 111.11043 10.32887 5.28125 -32.3772 11.87357 4.92297 48.1399 -95.66834 14.44642 -0.23202 36.67035 -2.33472 -12.41746 -21.26139 -9.08455 -3.98523 -4.2978 39.99591 10.70965 5.38598 -27.24894 -9.55505 3.94421 4.30192
-0.00172 -0.00037 0.00131 -180.67504 -34.41436 -2.58285 44.81408 2.66791 -4.82164 -8.38498 -0.97674 -0.86933 -28.7354 -8.41442 -7.97242 43.67095 111.08216 10.31918 5.28032 -32.37254 11.8609 4.93429 48.12946 -95.70955 14.44319 -0.23278 36.63998 -2.40589 -12.70878 -21.26419 -9.04526 -3.95898 -4.28326 39.94451 10.81722 5.89481 -27.26645 -9.49451 3.91089 4.2824
-0.00209 -0.00043 0.0016 -180.74304 -34.41617 -2.5902 44.84987 2.67245 -4.83834 -8.37926 -0.97509 -0.86929 -28.74204 -8.39791 -7.9533 43.65045 111.13219 10.32506 5.29749 -32.36799 11.84802 4.94641 48.11849 -95.75139 14.43971 -0.23356 36.61439 -2.47852 -13.00711 -21.26819 -9.00494 -3.93216 -4.26839 39.89735 10.92792 6.41611 -27.28526 -9.43248 3.87679 4.26239
-0.00246 -0.00049 0.00189 -180.8097 -34.41424 -2.59735 44.88136 2.67674 -4.85563 -8.37327 -0.97356 -0.86988 -28.74946 -8.38563 -7.92433 43.63032 111.11259 10.3171 5.29857 -32.36334 11.83533 4.95781 48.108 -95.79265 14.43645 -0.23432 36.58457 -2.54982 -13.29903 -21.27112 -8.96555 -3.90587 -4.25382 39.84644 11.03578 6.92613 -27.30291 -9.3718 3.8434 4.24283
-0.00283 -0.00055 0.00218 -180.87464 -34.40711 -2.60425 44.90691 2.68071 -4.8738 -8.36683 -0.97215 -0.87134 -28.75783 -8.37916 -7.88163 43.61061 110.99661 10.28997 5.27734 -32.35858 11.82288 4.96825 48.09815 -95.83324 14.4335 -0.23506 36.5488 -2.61946 -13.583 -21.27259 -8.92733 -3.88022 -4.23963 39.79023 11.14003 7.42168 -27.31899 -9.31284 3.81091 4.22383
-0.00323 -0.00062 0.00247 -180.94922 -34.42801 -2.61257 44.9646 2.68646 -4.88739 -8.36264 -0.96999 -0.86811 -28.7607 -8.34121 -7.91281 43.5884 111.40118 10.36636 5.37651 -32.3545 11.80904 4.984 48.08478 -95.87778 14.42888 -0.23594 36.54489 -2.69852 -13.91238 -21.28201 -8.8825 -3.85088 -4.22326 39.76237 11.2646 7.99845 -27.34365 -9.2442 3.77335 4.20163
-0.00356 -0.00066 0.00275 -181.00364 -34.39102 -2.61791 44.95583 2.68851 -4.91031 -8.35391 -0.96944 -0.87456 -28.77517 -8.36838 -7.79148 43.57153 110.72982 10.2288 5.22689 -32.34893 11.79817 4.98866 48.07872 -95.91394 14.42774 -0.23651 36.47532 -2.7578 -14.14615 -21.27496 -8.85155 -3.82932 -4.21149 39.67612 11.34659 8.40515 -27.3505 -9.19584 3.74643 4.18615
-0.00369 -0.00059 0.00301 -181.00073 -34.18345 -2.61477 44.75191 2.67986 -4.962 -8.33103 -0.97302 -0.90956 -28.82199 -8.58695 -7.21955 43.56903 106.89015 9.46085 4.3441 -32.33968 11.79513 4.96176 48.09378 -95.92745 14.43672 -0.23627 36.21123 -2.7616 -14.11401 -21.21966 -8.85952 -3.82945 -4.21258 39.41644 11.30802 8.3296 -27.30568 -9.20484 3.74957 4.18972
-0.00375 -0.00049 0.00326 -180.97797 -33.92008 -2.60868 44.48378 2.6676 -5.02249 -8.30392 -0.97827 -0.95393 -28.88034 -8.86862 -6.50036 43.57193 102.0092 8.48587 3.22064 -32.32888 11.79509 4.92401 48.11596 -95.93268 14.44916 -0.23573 35.88406 -2.74584 -13.98682 -21.14841 -8.88126 -3.83732 -4.21825 39.10078 11.22733 8.08596 -27.24354 -9.23388 3.76328 4.19995
-0.00385 -0.00041 0.00351 -180.96558 -33.6897 -2.6041 44.25316 2.65735 -5.07693 -8.27986 -0.98296 -0.9927 -28.93314 -9.11305 -5.86958 43.5726 97.74678 7.63411 2.24052 -32.3185 11.79395 4.89188 48.13422 -95.94116 14.4596 -0.23523 35.5949 -2.73976 -13.9051 -21.08637 -8.89618 -3.84144 -4.22171 38.81913 11.1684 7.92965 -27.19112 -9.25261 3.7716 4.20673
-0.00394 -0.00031 0.00376 -180.94736 -33.42633 -2.59877 43.98659 2.64551 -5.14009 -8.25104 -0.98685 -1.03708 -28.98743 -9.39352 -5.14804 43.57247 92.8723 6.65972 1.11735 -32.30922 11.7919 4.85651 48.15546 -95.95087 14.47162 -0.235 35.26541 -2.73006 -13.81241 -21.01583 -8.91359 -3.8466 -4.22579 38.5004 11.0985 7.72763 -27.13074 -9.27641 3.78233 4.21524
-0.00403 -0.00023 0.00402 -180.93669 -33.21927 -2.59434 43.7805 2.63617 -5.18713 -8.23114 -0.99276 -1.07207 -29.04115 -9.61417 -4.58031 43.5751 89.0214 5.89073 0.23407 -32.2974 11.79223 4.82571 48.17207 -95.9572 14.48148 -0.23432 35.00592 -2.72358 -13.72151 -20.95944 -8.92896 -3.85136 -4.22961 38.24664 11.04123 7.57996 -27.083 -9.29447 3.79062 4.22179
-0.00417 -0.00022 0.00431 -180.95073 -33.17401 -2.59288 43.74964 2.63425 -5.18792 -8.23664 -1.00426 -1.07838 -29.09219 -9.65125 -4.47692 43.58554 88.29572 5.74877 0.08192 -32.27805 11.80019 4.80726 48.17523 -95.9517 14.48314 -0.2317 34.94646 -2.72794 -13.64667 -20.94423 -8.93634 -3.85381 -4.23214 38.17675 11.0316 7.63365 -27.07291 -9.29089 3.78896 4.2209
-0.00433 -0.00022 0.00462 -180.97313 -33.18831 -2.59246 43.7828 2.63502 -5.17215 -8.25126 -1.01768 -1.07503 -29.14194 -9.62644 -4.53278 43.59833 88.62891 5.81917 0.17786 -32.25637 11.80993 4.7947 48.17333 -95.9475 14.48375 -0.22936 34.96074 -2.73671 -13.57914 -20.94405 -8.94102 -3.85546 -4.23416 38.1754 11.03581 7.74663 -27.07635 -9.28093 3.78454 4.21786
-0.00447 -0.00021 0.00492 -180.9925 -33.18076 -2.59173 43.79222 2.6348 -5.16362 -8.2619 -1.02998 -1.07638 -29.19116 -9.6319 -4.51344 43.60896 88.44795 5.78619 0.1537 -32.23638 11.81793 4.78089 48.17298 -95.94114 14.48453 -0.22665 34.94766 -2.74537 -13.51632 -20.93834 -8.94625 -3.857 -4.23607 38.1494 11.03189 7.82508 -27.0747 -9.27451 3.78185 4.2161
-0.00462 -0.0002 0.00521 -181.00839 -33.15102 -2.59027 43.7788 2.63353 -5.1564 -8.27184 -1.04339 -1.07667 -29.24551 -9.63061 -4.50096 43.62412 88.36688 5.7744 0.15169 -32.21372 11.83075 4.75912 48.17585 -95.92647 14.48276 -0.22256 34.90862 -2.74554 -13.41652 -20.92705 -8.95475 -3.86079 -4.23959 38.09613 11.0337 7.92715 -27.06831 -9.26629 3.77774 4.21342
-0.00477 -0.0002 0.00552 -181.03319 -33.18011 -2.59054 43.82649 2.63507 -5.14268 -8.28525 -1.05489 -1.07688 -29.28871 -9.62774 -4.51388 43.63065 88.34632 5.77236 0.1662 -32.19601 11.83295 4.75742 48.17095 -95.9479 14.49099 -0.22442 34.93921 -2.76448 -13.39641 -20.93057 -8.9557 -3.85961 -4.23959 38.114 11.02816 7.99949 -27.07477 -9.25978 3.77554 4.21191
-0.00494 -0.0002 0.0059 -181.08576 -33.37729 -2.59618 44.04941 2.64437 -5.11254 -8.3078 -1.06083 -1.07796 -29.30136 -9.63601 -4.56021 43.61003 88.21513 5.74101 0.16312 -32.19325 11.8138 4.79243 48.14395 -95.90554 14.48254 -0.21598 35.16868 -2.83584 -13.5972 -20.97659 -8.93583 -3.84488 -4.22974 38.33532 10.99249 7.948 -27.11768 -9.26168 3.78141 4.21535
-0.0051 -0.00022 0.0063 -181.14619 -33.62839 -2.60341 44.32813 2.65632 -5.07679 -8.33322 -1.06473 -1.07944 -29.30274 -9.64418 -4.62761 43.58107 88.12124 5.71482 0.17074 -32.19545 11.78257 4.85023 48.10961 -95.92569 14.49131 -0.2178 35.46178 -2.92564 -13.8775 -21.03617 -8.90855 -3.82517 -4.21641 38.62208 10.95027 7.87004 -27.1724 -9.26506 3.7889 4.21981
-0.00525 -0.00022 0.00669 -181.19965 -33.84146 -2.60937 44.56672 2.66661 -5.04529 -8.35613 -1.06945 -1.08158 -29.30932 -9.65223 -4.68384 43.55783 88.02241 5.68906 0.17508 -32.19489 11.75098 4.90958 48.07988 -96.02968 14.52285 -0.23328 35.70943 -3.00607 -14.12073 -21.08608 -8.88498 -3.80766 -4.20479 38.86311 10.91561 7.82345 -27.21891 -9.26618 3.79416 4.22296
-0.00545 -0.00024 0.00708 -181.26751 -34.11253 -2.61763 44.86856 2.67885 -5.0063 -8.38436 -1.07475 -1.08002 -29.31572 -9.66 -4.74959 43.52684 87.89183 5.6554 0.17724 -32.19629 11.74306 4.92086 48.04469 -95.67736 14.42999 -0.17426 36.02782 -3.09111 -14.36989 -21.151 -8.85975 -3.79022 -4.19253 39.17251 10.86246 7.69895 -27.27762 -9.27359 3.80542 4.22951
-0.00556 -0.00024 0.00746 -181.30741 -34.27629 -2.62155 45.05268 2.68768 -4.98145 -8.4022 -1.07827 -1.08618 -29.31957 -9.66767 -4.80182 43.50958 87.84429 5.64102 0.18827 -32.1949 11.6843 5.03511 48.01909 -96.26827 14.59431 -0.26925 36.21502 -3.17049 -14.62323 -21.18809 -8.83643 -3.77167 -4.18086 39.35601 10.84562 7.72746 -27.31388 -9.2686 3.80487 4.2294
-0.00546 -0.00016 0.00778 -181.26605 -34.11784 -2.61243 44.88448 2.68595 -5.00003 -8.38944 -1.07784 -1.11525 -29.32154 -9.68823 -4.78128 43.5356 87.82062 5.63922 0.1761 -32.18385 11.47636 5.44975 48.02256 -99.63937 15.51689 -0.81817 36.00735 -3.23302 -14.88866 -21.1414 -8.81866 -3.74963 -4.17089 39.15996 10.93454 8.2034 -27.2823 -9.22673 3.76908 4.20946
-0.00528 -6e-05 0.00808 -181.19667 -33.85175 -2.59902 44.59828 2.68076 -5.03257 -8.36631 -1.07559 -1.15181 -29.32091 -9.70684 -4.75056 43.57508 87.90565 5.66191 0.17854 -32.16998 11.21981 5.96329 48.0358 -103.92273 16.68816 -1.51604 35.66846 -3.28862 -15.15202 -21.06687 -8.80335 -3.72696 -4.16175 38.83778 11.05932 8.83003 -27.22824 -9.17279 3.72176 4.18303
